<svg width="65" height="65" viewBox="0 0 65 65" fill="none" xmlns="http://www.w3.org/2000/svg">
<g clip-path="url(#clip0)">
<path d="M63.669 55.1958C58.991 51.0448 54.233 51.0528 49.937 55.1988C46.128 58.6058 42.615 58.6098 38.823 55.1588C34.21 51.5178 29.482 51.5258 25.107 55.2248C21.166 59.0378 17.976 59.0428 14.033 55.1678C9.27201 51.2898 4.79301 51.2998 0.34301 55.1898C-0.0729897 55.5538 -0.11499 56.1858 0.24801 56.6008C0.61201 57.0168 1.24401 57.0568 1.65901 56.6958C5.35601 53.4648 8.78201 53.4718 12.7 56.6558C15.011 58.9288 17.297 60.0618 19.586 60.0618C21.862 60.0618 24.142 58.9418 26.448 56.7078C30.056 53.6578 33.701 53.6638 37.53 56.6828C41.988 60.7428 46.739 60.7438 51.299 56.6628C54.898 53.1908 58.406 53.1978 62.342 56.6908C62.754 57.0558 63.387 57.0208 63.754 56.6068C64.119 56.1948 64.082 55.5628 63.669 55.1958Z" fill="white"/>
<path d="M18.189 15.4659C18.348 15.6659 18.577 15.7969 18.83 15.8339L29.979 17.4439L34.944 24.5279C34.943 24.5359 34.938 24.5419 34.937 24.5509L33.598 37.1539C33.571 37.4109 33.644 37.6689 33.803 37.8739L40.996 47.1199C41.193 47.3729 41.488 47.5059 41.786 47.5059C42 47.5059 42.217 47.4369 42.399 47.2949C42.835 46.9559 42.913 46.3279 42.574 45.8919L35.629 36.9649L36.686 27.0149L40.494 32.4479C40.568 32.5529 40.669 32.6199 40.769 32.6869C40.464 33.1619 40.242 33.7019 40.135 34.2909C39.7 36.6999 41.308 39.0139 43.717 39.4489C43.983 39.4969 44.246 39.5199 44.507 39.5199C46.612 39.5199 48.487 38.0119 48.875 35.8689C49.31 33.4589 47.702 31.1459 45.293 30.7109C44.159 30.5059 43.054 30.7659 42.148 31.3369C42.141 31.3259 42.14 31.3119 42.132 31.3009L31.369 15.9419C31.366 15.9369 31.36 15.9349 31.357 15.9309C31.308 15.8639 31.242 15.8139 31.178 15.7609C31.142 15.7309 31.113 15.6899 31.073 15.6659C31.034 15.6419 30.986 15.6349 30.943 15.6159C30.866 15.5819 30.79 15.5449 30.707 15.5319C30.702 15.5309 30.698 15.5279 30.693 15.5269L19.508 13.9109L11.888 4.3209C11.544 3.8889 10.914 3.81489 10.483 4.15989C10.05 4.50289 9.97802 5.1319 10.322 5.5649L18.189 15.4659ZM44.504 32.5199C44.654 32.5199 44.807 32.5329 44.959 32.5609C46.348 32.8109 47.273 34.1439 47.023 35.5329C46.772 36.9209 45.442 37.8499 44.05 37.5959C42.661 37.3459 41.735 36.0119 41.985 34.6239C42.21 33.3889 43.29 32.5199 44.504 32.5199Z" fill="white"/>
</g>
<defs>
<clipPath id="clip0">
<rect width="64.005" height="64.005" fill="white"/>
</clipPath>
</defs>
</svg>
